# AST/ASF file generated using VICON BodyLanguage
# -----------------------------------------------
:version 1.10
:name VICON
:units
  mass 1.0
  length 0.45
  angle deg
:documentation
   .ast/.asf automatically generated from VICON data using
   VICON BodyBuilder and BodyLanguage model FoxedUp or BRILLIANT.MOD
:root
   order TX TY TZ RX RY RZ
   axis XYZ
   position 0 0 0  
   orientation 0 0 0 
:bonedata
  begin
     id 1 
     name lhipjoint
     direction 0.577973 -0.728611 0.367523 
     length 2.48544 
     axis 0 0 0  XYZ
  end
  begin
     id 2 
     name lfemur
     direction 0.34202 -0.939693 0  
     length 7.1921  
     axis 0 0 20  XYZ
    dof rx ry rz
    limits (-160.0 20.0)
           (-70.0 70.0)
           (-60.0 70.0)
  end
  begin
     id 3 
     name ltibia
     direction 0.34202 -0.939693 0   
     length 7.71059   
     axis 0 0 20   XYZ
    dof rx
    limits (-10.0 170.0)
  end
  begin
     id 4 
     name lfoot
     direction 0.089538 -0.246004 0.965124   
     length 2.19909   
     axis -90 7.62852e-016 20   XYZ
    dof rx rz
    limits (-45.0 90.0)
           (-70.0 20.0)
  end
  begin
     id 5 
     name ltoes
     direction 1.53544e-011 -4.21829e-011 1   
     length 1.10116   
     axis -90 7.62852e-016 20   XYZ
    dof rx
    limits (-90.0 20.0)
  end
  begin
     id 6 
     name rhipjoint
     direction -0.554414 -0.743062 0.374812   
     length 2.4371  
     axis 0 0 0  XYZ 
  end
  begin
     id 7 
     name rfemur
     direction -0.34202 -0.939693 0   
     length 7.47254   
     axis 0 0 -20   XYZ
    dof rx ry rz
    limits (-160.0 20.0)
           (-70.0 70.0)
           (-70.0 60.0)
  end
  begin
     id 8 
     name rtibia
     direction -0.34202 -0.939693 0   
     length 7.65855   
     axis 0 0 -20   XYZ
    dof rx
    limits (-10.0 170.0)
 end
 begin
     id 9 
     name rfoot
     direction -0.133779 -0.367555 0.92033   
     length 2.43006  
     axis -90 -7.62852e-016 -20   XYZ
    dof rx rz
    limits (-45.0 90.0)
           (-20.0 70.0)
  end
  begin
     id 10 
     name rtoes
     direction -1.53563e-011 -4.21889e-011 1   
     length 1.19625   
     axis -90 -7.62852e-016 -20   XYZ
    dof rx
    limits (-90.0 20.0)
  end
  begin
     id 11 
     name lowerback
     direction 0.0249066 0.998043 -0.0573585   
     length 2.08485   
     axis 0 0 0   XYZ
    dof rx ry rz
    limits (-20.0 45.0)
           (-30.0 30.0)
           (-30.0 30.0)
  end
  begin
     id 12 
     name upperback
     direction 0.0237884 0.999673 0.00943178   
     length 2.08515   
     axis 0 0 0   XYZ
    dof rx ry rz
    limits (-20.0 45.0)
           (-30.0 30.0)
           (-30.0 30.0)
  end
  begin
     id 13 
     name thorax
     direction 0.0106671 0.999301 0.0358174   
     length 2.09037   
     axis 0 0 0   XYZ
    dof rx ry rz
    limits (-20.0 45.0)
           (-30.0 30.0)
           (-30.0 30.0)
  end
  begin
     id 14 
     name lowerneck
     direction -0.0580016 0.987052 0.149546   
     length 1.84454   
     axis 0 0 0   XYZ
    dof rx ry rz
    limits (-20.0 45.0)
           (-30.0 30.0)
           (-30.0 30.0)
  end
  begin
     id 15 
     name upperneck
     direction 0.079456 0.981963 -0.171567   
     length 1.88141   
     axis 0 0 0   XYZ
    dof rx ry rz
    limits (-20.0 45.0)
           (-30.0 30.0)
           (-30.0 30.0)
  end
  begin
     id 16
     name head
     direction 0.0262167 0.9967 -0.0768276  
     length 1.89541  
     axis 0 0 0   XYZ
    dof rx ry rz
    limits (-20.0 45.0)
           (-30.0 30.0)
           (-30.0 30.0)
  end
  begin
     id 17 
     name lclavicle
     direction 0.946135 0.322134 -0.0325326  
     length 3.949  
     axis 0 0 0   XYZ
    dof ry rz
    limits (-20.0 10.0)
           (0.0 20.0)
  end
  begin
     id 18 
     name lhumerus
     direction 1 -4.48964e-011 1.94005e-028   
     length 5.10995   
     axis 180 -30 -90   XYZ
    dof rx ry rz
    limits (-60.0 90.0)
           (-90.0 90.0)
           (-90.0 90.0)
  end
  begin
     id 19
     name lradius
     direction 1 -4.48976e-011 2.87852e-027   
     length 3.21207   
     axis 180 -30 -90   XYZ
    dof rx
    limits (-10.0 170.0)
  end
  begin
     id 20
     name lwrist
     direction 1 -4.48963e-011 1.9975e-027   
     length 1.60604   
     axis 2.96054e-016 90 90   XYZ
    dof ry
    limits (-180.0 0.0)
 end
  begin
     id 21 
     name lhand
     direction 1 -4.48919e-011 4.00227e-027   
     length 0.63349   
     axis -2.5488e-015 90 90   XYZ
    dof rx rz
    limits (-90.0 90.0)
           (-45.0 45.0)
  end
  begin
     id 22 
     name lfingers
     direction 1 -4.49037e-011 7.9652e-027   
     length 0.510736   
     axis -5.0975e-015 90 90   XYZ
    dof rx
    limits (0.0 90.0)
  end
  begin
     id 23
     name lthumb
     direction 0.707107 -6.34922e-011 0.707107   
     length 0.733318   
     axis -90 45 -4.48553e-014   XYZ
    dof rx rz
    limits (-45.0 45.0)
           (-45.0 45.0)
  end
  begin
     id 24 
     name rclavicle
     direction -0.940085 0.328911 -0.0897654   
     length 3.93848  
     axis 0 0 0   XYZ 
    dof ry rz
    limits (-10.0 20.0)
           (-20.0 0.0)
  end
  begin
     id 25 
     name rhumerus
     direction -1 -4.48958e-011 3.02044e-027  
     length 5.25109   
     axis 180 30 90   XYZ
    dof rx ry rz
    limits (-90.0 60.0)
           (-90.0 90.0)
           (-90.0 90.0)
  end
  begin
     id 26 
     name rradius
     direction -1 -4.4897e-011 9.78352e-028   
     length 3.28364   
     axis 180 30 90   XYZ
    dof rx
    limits (-10.0 170.0)
  end
  begin
     id 27 
     name rwrist
     direction -1 -4.48943e-011 1.99918e-027   
     length 1.64182   
     axis 2.96054e-016 -90 -90   XYZ
    dof ry
    limits (-180.0 0.0)
  end
  begin
     id 28
     name rhand
     direction -1 -4.49024e-011 3.98478e-027   
     length 0.599745   
     axis -2.5488e-015 -90 -90   XYZ
    dof rx rz
    limits (-90.0 90.0)
           (-45.0 45.0)
  end
  begin
     id 29
     name rfingers
     direction -1 -4.48914e-011 8.00621e-027   
     length 0.48353   
     axis -5.0975e-015 -90 -90   XYZ
    dof rx
    limits (0.0 90.0)
  end
  begin
     id 30
     name rthumb
     direction -0.707107 -6.34992e-011 0.707107   
     length 0.694255   
     axis -90 -45 4.48553e-014   XYZ
    dof rx rz
    limits (-45.0 45.0)
           (-45.0 45.0)
  end
:hierarchy
  begin
    root lhipjoint rhipjoint lowerback
    lhipjoint lfemur
    lfemur ltibia
    ltibia lfoot
    lfoot ltoes
    rhipjoint rfemur
    rfemur rtibia
    rtibia rfoot
    rfoot rtoes
    lowerback upperback
    upperback thorax
    thorax lowerneck lclavicle rclavicle
    lowerneck upperneck
    upperneck head
    lclavicle lhumerus
    lhumerus lradius
    lradius lwrist
    lwrist lhand lthumb
    lhand lfingers
    rclavicle rhumerus
    rhumerus rradius
    rradius rwrist
    rwrist rhand rthumb
    rhand rfingers
  end

#!OML:ASF E:\CV Data\Top Level 1\Subject 1\Session 1\player.ASF
:FULLY-SPECIFIED
:DEGREES
361
root -0.154773 17.6697 -22.8085 13.6714 -19.9374 -7.65877
lowerback 18.8279 0.595822 10.8397
upperback 5.59096 2.98503 6.17107
thorax -4.2313 1.36344 -0.143771
lowerneck -17.4805 -6.03406 -10.2045
upperneck 21.6151 -7.08612 6.18771
head 10.4107 -3.38719 2.87363
rclavicle -8.74653e-015 2.38542e-014
rhumerus -6.20415 15.7506 -80.9922
rradius 94.0964
rwrist 24.7421
rhand -38.0673 5.35609
rfingers 7.12502
rthumb -11.1041 -24.3301
lclavicle -8.74653e-015 2.38542e-014
lhumerus -27.7013 -8.25469 87.7483
lradius 46.9473
lwrist -4.59283
lhand -6.66483 8.64645
lfingers 7.12502
lthumb 19.1932 37.7194
rfemur -18.4465 -4.24144 30.0255
rtibia 37.0458
rfoot -21.5121 -8.86221
rtoes -0.115802
lfemur -41.1121 7.8441 -15.6641
ltibia 24.0412
lfoot -6.40935 13.7006
ltoes -2.43916
362
root -0.158553 17.6395 -22.7761 13.7071 -20.0162 -7.77557
lowerback 19.1494 0.698717 10.8268
upperback 5.7362 3.15107 6.31807
thorax -4.23903 1.44321 -0.0189913
lowerneck -17.4858 -6.05357 -10.1557
upperneck 21.3116 -7.09717 6.13806
head 10.299 -3.39177 2.84367
rclavicle 3.89618e-014 -3.02153e-014
rhumerus -6.01887 16.2743 -81.3716
rradius 91.5936
rwrist 25.722
rhand -39.5741 7.8171
rfingers 7.12502
rthumb -12.5572 -21.7855
lclavicle 3.89618e-014 -3.02153e-014
lhumerus -27.4918 -8.68063 87.987
lradius 47.1391
lwrist -5.04146
lhand -6.34776 8.51052
lfingers 7.12502
lthumb 19.498 37.5529
rfemur -18.6328 -4.20816 30.0616
rtibia 37.7286
rfoot -21.8555 -8.68013
rtoes -0.119845
lfemur -41.4964 7.86299 -15.4175
ltibia 23.6858
lfoot -6.07686 14.4536
ltoes -1.87583
363
root -0.161583 17.607 -22.7425 13.7578 -20.1238 -7.90351
lowerback 19.4592 0.8058 10.8065
upperback 5.87283 3.31988 6.45924
thorax -4.25032 1.52385 0.102467
lowerneck -17.4801 -6.07018 -10.1317
upperneck 21.021 -7.10718 6.11964
head 10.1925 -3.39478 2.82967
rclavicle 6.36111e-015 -2.54444e-014
rhumerus -5.67485 16.4519 -81.7162
rradius 88.6281
rwrist 27.1596
rhand -41.34 10.6505
rfingers 7.12502
rthumb -14.2592 -18.8399
lclavicle 6.36111e-015 -2.54444e-014
lhumerus -27.3117 -9.06802 88.2048
lradius 47.3557
lwrist -5.47765
lhand -6.04611 8.33768
lfingers 7.12502
lthumb 19.788 37.3504
rfemur -18.847 -4.2037 30.1138
rtibia 38.4263
rfoot -22.1813 -8.51593
rtoes -0.276499
lfemur -41.878 7.88025 -15.1338
ltibia 23.335
lfoot -5.73065 15.1403
ltoes -1.45772
364
root -0.163462 17.5726 -22.7067 13.8237 -20.2612 -8.0448
lowerback 19.7347 0.914989 10.8167
upperback 6.016 3.48903 6.57462
thorax -4.23276 1.60597 0.179832
lowerneck -17.4748 -6.08816 -10.1123
upperneck 20.725 -7.1262 6.13566
head 10.0869 -3.39847 2.82747
rclavicle 1.19271e-014 4.77083e-015
rhumerus -5.139 16.3171 -82.0281
rradius 85.2456
rwrist 29.0304
rhand -43.4171 13.4222
rfingers 7.12502
rthumb -16.26 -15.916
lclavicle 1.19271e-014 4.77083e-015
lhumerus -27.1275 -9.44947 88.3766
lradius 47.5874
lwrist -5.86794
lhand -5.79952 8.15632
lfingers 7.12502
lthumb 20.0251 37.1444
rfemur -19.0858 -4.28138 30.1888
rtibia 39.1208
rfoot -22.464 -8.38484
rtoes -0.80137
lfemur -42.2429 7.87977 -14.8032
ltibia 22.9798
lfoot -5.39056 15.7744
ltoes -1.14811
365
root -0.163999 17.5365 -22.6685 13.9006 -20.4097 -8.20174
lowerback 20.0224 1.02848 10.8327
upperback 6.13913 3.66967 6.69778
thorax -4.24302 1.69179 0.258629
lowerneck -17.4707 -6.10968 -10.1203
upperneck 20.4506 -7.14384 6.15301
head 9.99077 -3.40373 2.83059
rclavicle 2.62396e-014 4.6118e-014
rhumerus -4.44491 15.9007 -82.26
rradius 81.5268
rwrist 31.2545
rhand -45.3252 15.6467
rfingers 7.12502
rthumb -18.0965 -13.5315
lclavicle 2.62396e-014 4.6118e-014
lhumerus -26.9759 -9.8064 88.5575
lradius 47.8249
lwrist -6.19811
lhand -5.66866 7.93573
lfingers 7.12502
lthumb 20.1508 36.9106
rfemur -19.325 -4.44053 30.2845
rtibia 39.8011
rfoot -22.7386 -8.25357
rtoes -1.47272
lfemur -42.5876 7.85631 -14.4271
ltibia 22.6193
lfoot -5.05294 16.3516
ltoes -0.94311
